<?xml version="1.0" encoding="UTF-8"?>
<svg xmlns="http://www.w3.org/2000/svg" xmlns:xlink="http://www.w3.org/1999/xlink" width="10pt" height="10pt" viewBox="0 0 10 10" version="1.1">
<g id="surface1">
<path style=" stroke:none;fill-rule:nonzero;fill:rgb(95.686275%,26.27451%,21.176471%);fill-opacity:1;" d="M 0.648438 10.015625 C 0.484375 10.015625 0.316406 9.949219 0.191406 9.824219 C -0.0625 9.570312 -0.0625 9.160156 0.191406 8.90625 L 8.898438 0.199219 C 9.152344 -0.0546875 9.5625 -0.0546875 9.816406 0.199219 C 10.070312 0.453125 10.070312 0.863281 9.816406 1.113281 L 1.105469 9.824219 C 0.980469 9.953125 0.8125 10.015625 0.648438 10.015625 Z M 0.648438 10.015625 "/>
<path style=" stroke:none;fill-rule:nonzero;fill:rgb(95.686275%,26.27451%,21.176471%);fill-opacity:1;" d="M 9.359375 10.015625 C 9.191406 10.015625 9.027344 9.949219 8.898438 9.824219 L 0.191406 1.113281 C -0.0625 0.863281 -0.0625 0.453125 0.191406 0.199219 C 0.445312 -0.0546875 0.851562 -0.0546875 1.105469 0.199219 L 9.816406 8.90625 C 10.070312 9.160156 10.070312 9.570312 9.816406 9.824219 C 9.691406 9.953125 9.523438 10.015625 9.359375 10.015625 Z M 9.359375 10.015625 "/>
</g>
</svg>
