<?xml version="1.0" encoding="UTF-8"?>
<svg xmlns="http://www.w3.org/2000/svg" xmlns:xlink="http://www.w3.org/1999/xlink" width="20pt" height="20pt" viewBox="0 0 20 20" version="1.1">
<g id="surface1">
<path style=" stroke:none;fill-rule:nonzero;fill:rgb(95.686275%,26.27451%,21.176471%);fill-opacity:1;" d="M 1.296875 20.027344 C 0.964844 20.027344 0.632812 19.902344 0.378906 19.648438 C -0.125 19.140625 -0.125 18.320312 0.378906 17.816406 L 17.796875 0.398438 C 18.304688 -0.109375 19.125 -0.109375 19.632812 0.398438 C 20.140625 0.902344 20.140625 1.722656 19.632812 2.230469 L 2.214844 19.648438 C 1.960938 19.902344 1.628906 20.027344 1.296875 20.027344 Z M 1.296875 20.027344 "/>
<path style=" stroke:none;fill-rule:nonzero;fill:rgb(95.686275%,26.27451%,21.176471%);fill-opacity:1;" d="M 18.714844 20.027344 C 18.382812 20.027344 18.050781 19.902344 17.796875 19.648438 L 0.378906 2.230469 C -0.125 1.722656 -0.125 0.902344 0.378906 0.398438 C 0.886719 -0.109375 1.707031 -0.109375 2.214844 0.398438 L 19.632812 17.816406 C 20.140625 18.320312 20.140625 19.140625 19.632812 19.648438 C 19.378906 19.902344 19.046875 20.027344 18.714844 20.027344 Z M 18.714844 20.027344 "/>
</g>
</svg>
